<svg height="512pt" viewBox="-46 0 512 512.00191" width="512pt" xmlns="http://www.w3.org/2000/svg"><g fill="#8beabc"><path d="m346.621094 155.699219c2.117187 12.742187-2.042969 25.722656-11.179688 34.859375l-65.441406 65.441406 60-200zm0 0"/><path d="m236.269531 154.820312c8.410157-1.917968 13.730469-6.78125 13.730469-18.820312 0-9.660156-3.429688-22.359375-9.140625-33.578125-6.210937-12.222656-17.203125-26.421875-30.859375-26.421875s-24.644531 14.199219-30.859375 26.421875c-5.710937 11.21875-9.140625 23.917969-9.140625 33.578125 0 12.039062 5.320312 16.902344 13.730469 18.820312-13.054688 29.65625-13.730469 97.363282-13.730469 131.179688 0 21.328125 1.191406 41.628906 3.332031 60 6.167969 52.980469 20.269531 90 36.667969 90s30.5-37.019531 36.671875-90c2.136719-18.371094 3.328125-38.671875 3.328125-60 0-33.882812-.6875-101.546875-13.730469-131.179688zm0 0"/><path d="m90 56 60 200-65.4375-65.441406c-9.140625-9.136719-13.300781-22.117188-11.179688-34.859375zm0 0"/></g><path d="m220 356c0 5.523438-4.476562 10-10 10s-10-4.476562-10-10 4.476562-10 10-10 10 4.476562 10 10zm0 0"/><path d="m417.070312 143.070312c3.90625-3.902343 3.90625-10.234374 0-14.140624l-80-80c-5.351562-5.351563-14.496093-2.996094-16.648437 4.199218l-55.1875 183.960938-6.484375-6.484375c-1.628906-31.53125-4.804688-54.34375-9.847656-70.421875 7.289062-4.953125 11.097656-13.132813 11.097656-24.183594 0-9.871094-2.925781-22.015625-7.949219-33.324219l46.777344-87.980469c2.59375-4.875.742187-10.929687-4.132813-13.523437-4.875-2.589844-10.933593-.742187-13.523437 4.136719l-41.164063 77.417968c-.003906-.003906-.003906-.003906-.007812-.007812v-26.71875c0-5.523438-4.476562-10-10-10s-10 4.476562-10 10v11.738281c-3.289062-1.140625-6.636719-1.738281-10-1.738281s-6.710938.597656-10 1.738281v-11.738281c0-5.523438-4.476562-10-10-10s-10 4.476562-10 10v26.71875s-.003906.003906-.003906.007812l-41.167969-77.421874c-2.589844-4.875-8.644531-6.722657-13.523437-4.132813-4.875 2.59375-6.726563 8.648437-4.132813 13.523437l46.777344 87.980469c-5.019531 11.308594-7.949219 23.453125-7.949219 33.324219 0 11.050781 3.8125 19.230469 11.097656 24.183594-5.042968 16.082031-8.21875 38.890625-9.847656 70.421875l-6.480469 6.484375c-13.644531-45.464844-54.949219-183.175782-55.234375-184.082032-2.257812-7.171874-11.3125-9.367187-16.605468-4.078124l-80 80c-3.90625 3.902343-3.90625 10.234374 0 14.140624s10.238281 3.90625 14.144531 0l57.933593-57.933593-11.492187 68.921875c-2.644531 15.890625 2.582031 32.179687 13.976563 43.574218l65.371093 65.371094c.019531.019532.042969.042969.0625.0625l.003907.003906c.003906.003907.007812.003907.007812.007813 3.925781 3.90625 10.304688 3.875 14.175781-.046875l3.132813-3.132812c-.160156 8.257812-.246094 16.964843-.246094 26.101562 0 3.808594.050781 7.589844.125 11.351562l-44.582031-29.675781c-2.742188-1.824219-6.199219-2.183593-9.257813-.960937l-79.996094 32c-5.128906 2.050781-7.625 7.871094-5.574218 13 2.050781 5.128906 7.875 7.621094 13 5.570312l75.121094-30.046875 52.320312 34.828125c.40625 6.316406.917969 12.542969 1.542969 18.652344l-77.84375 46.707031c-2.449219 1.46875-4.152344 3.914063-4.679688 6.71875l-20 106c-1.027343 5.429688 2.542969 10.65625 7.972657 11.683594 5.4375 1.023437 10.65625-2.558594 11.679687-7.972656l19.167969-101.589844 66.445312-39.871094c5.582032 36.53125 17.9375 83.605469 44.558594 83.605469s38.980469-47.074219 44.558594-83.605469l66.445312 39.871094 19.167969 101.589844c1.023437 5.40625 6.234375 8.996093 11.683594 7.972656 5.425781-1.027344 8.996093-6.253906 7.972656-11.683594l-20-106c-.53125-2.804687-2.234375-5.25-4.683594-6.71875l-77.84375-46.707031c.628907-6.109375 1.136719-12.335938 1.546875-18.652344l52.320313-34.828125 75.117187 30.046875c5.128906 2.050782 10.949219-.441406 13-5.570312 2.050782-5.128906-.441406-10.945313-5.570312-13l-80-32c-3.054688-1.222656-6.515625-.863282-9.253906.960937l-44.582032 29.675781c.074219-3.761718.121094-7.542968.121094-11.351562 0-9.132812-.082031-17.84375-.242188-26.101562l3.132813 3.132812c3.882813 3.929688 10.316406 3.964844 14.242187-.019531l65.378907-65.382813c11.394531-11.390625 16.617187-27.679687 13.972656-43.574218l-11.488281-68.914063 57.929687 57.929687c3.910157 3.90625 10.238281 3.90625 14.144531 0zm-177.070312-7.070312c0 7.605469-2.308594 8.238281-5.820312 9.039062-.011719.003907-.023438.007813-.035157.007813-.035156.007813-.070312.019531-.105469.027344-4.644531 1.0625-11.472656 1.011719-18.695312.953125-4.664062-.035156-6.015625-.035156-10.683594 0-7.230468.054687-14.054687.109375-18.703125-.957032-.039062-.007812-.074219-.015624-.113281-.027343-.003906 0-.011719 0-.019531-.003907-3.507813-.800781-5.824219-1.425781-5.824219-9.039062 0-19.164062 16.085938-50 30-50 14.148438 0 30 31.078125 30 50zm-156.753906 21.34375 9.542968-57.25 36.234376 120.789062-37.390626-37.394531c-6.839843-6.835937-9.972656-16.613281-8.386718-26.144531zm126.753906 268.65625c-9.808594 0-30-51.78125-30-140 0-31.445312.78125-90.398438 10.296875-120.21875 4.59375.316406 9.46875.207031 14.519531.164062 8.457032-.0625 10.316406.027344 15.289063.027344 3.308593 0 6.519531.027344 9.601562-.183594 9.503907 29.796876 10.292969 88.675782 10.292969 120.210938 0 88.734375-20.351562 140-30 140zm118.367188-242.511719-37.390626 37.394531 36.234376-120.789062 9.542968 57.246094c1.585938 9.535156-1.546875 19.3125-8.386718 26.148437zm0 0"/><path d="m210 206c-5.523438 0-10 4.476562-10 10v100c0 5.523438 4.476562 10 10 10s10-4.476562 10-10v-100c0-5.523438-4.476562-10-10-10zm0 0"/></svg>